HIERARCHY
ROOT Hips
{
	OFFSET 0.00000 0.00000 0.00000
	CHANNELS 6 Xposition Yposition Zposition Zrotation Yrotation Xrotation 
	JOINT LHipJoint
	{
		OFFSET 0 0 0
		CHANNELS 3 Zrotation Yrotation Xrotation
		JOINT LeftUpLeg
		{
			OFFSET 1.64577 -1.42384 0.94276
			CHANNELS 3 Zrotation Yrotation Xrotation
			JOINT LeftLeg
			{
				OFFSET 2.11538 -5.81197 0.00000
				CHANNELS 3 Zrotation Yrotation Xrotation
				JOINT LeftFoot
				{
					OFFSET 2.36541 -6.49893 0.00000
					CHANNELS 3 Zrotation Yrotation Xrotation
					JOINT LeftToeBase
					{
						OFFSET 0.17759 -0.48793 1.73865
						CHANNELS 3 Zrotation Yrotation Xrotation
						End Site
						{
							OFFSET 0.00000 -0.00000 0.91205
						}
					}
				}
			}
		}
	}
	JOINT RHipJoint
	{
		OFFSET 0 0 0
		CHANNELS 3 Zrotation Yrotation Xrotation
		JOINT RightUpLeg
		{
			OFFSET -1.43750 -1.42384 0.94276
			CHANNELS 3 Zrotation Yrotation Xrotation
			JOINT RightLeg
			{
				OFFSET -2.10480 -5.78291 0.00000
				CHANNELS 3 Zrotation Yrotation Xrotation
				JOINT RightFoot
				{
					OFFSET -2.34880 -6.45329 0.00000
					CHANNELS 3 Zrotation Yrotation Xrotation
					JOINT RightToeBase
					{
						OFFSET -0.22842 -0.62757 1.80469
						CHANNELS 3 Zrotation Yrotation Xrotation
						End Site
						{
							OFFSET -0.00000 -0.00000 0.95886
						}
					}
				}
			}
		}
	}
	JOINT LowerBack
	{
		OFFSET 0 0 0
		CHANNELS 3 Zrotation Yrotation Xrotation
		JOINT Spine
		{
			OFFSET 0.06217 1.93758 -0.49272
			CHANNELS 3 Zrotation Yrotation Xrotation
			JOINT Spine1
			{
				OFFSET -0.03114 2.03621 -0.05830
				CHANNELS 3 Zrotation Yrotation Xrotation
				JOINT Neck
				{
					OFFSET 0 0 0
					CHANNELS 3 Zrotation Yrotation Xrotation
					JOINT Neck1
					{
						OFFSET 0.04421 1.41010 0.26562
						CHANNELS 3 Zrotation Yrotation Xrotation
						JOINT Head
						{
							OFFSET -0.13407 1.43847 0.06181
							CHANNELS 3 Zrotation Yrotation Xrotation
							End Site
							{
								OFFSET -0.04980 1.45844 -0.00689
							}
						}
					}
				}
				JOINT LeftShoulder
				{
					OFFSET 0 0 0
					CHANNELS 3 Zrotation Yrotation Xrotation
					JOINT LeftArm
					{
						OFFSET 2.18382 1.47753 -0.35694
						CHANNELS 3 Zrotation Yrotation Xrotation
						JOINT LeftForeArm
						{
							OFFSET 5.05460 -0.00000 0.00000
							CHANNELS 3 Zrotation Yrotation Xrotation
							JOINT LeftHand
							{
								OFFSET 3.39013 -0.00000 0.00000
								CHANNELS 3 Zrotation Yrotation Xrotation
								JOINT LeftFingerBase
								{
									OFFSET 0 0 0
									CHANNELS 3 Zrotation Yrotation Xrotation
									JOINT LeftHandIndex1
									{
										OFFSET 0.57242 -0.00000 -0.00000
										CHANNELS 3 Zrotation Yrotation Xrotation
										End Site
										{
											OFFSET 0.46150 -0.00000 -0.00000
										}
									}
								}
								JOINT LThumb
								{
									OFFSET 0 0 0
									CHANNELS 3 Zrotation Yrotation Xrotation
									End Site
									{
										OFFSET 0.46855 -0.00000 0.46855
									}
								}
							}
						}
					}
				}
				JOINT RightShoulder
				{
					OFFSET 0 0 0
					CHANNELS 3 Zrotation Yrotation Xrotation
					JOINT RightArm
					{
						OFFSET -2.06033 1.72839 -0.47437
						CHANNELS 3 Zrotation Yrotation Xrotation
						JOINT RightForeArm
						{
							OFFSET -5.07010 -0.00000 0.00000
							CHANNELS 3 Zrotation Yrotation Xrotation
							JOINT RightHand
							{
								OFFSET -3.14957 -0.00000 -0.00000
								CHANNELS 3 Zrotation Yrotation Xrotation
								JOINT RightFingerBase
								{
									OFFSET 0 0 0
									CHANNELS 3 Zrotation Yrotation Xrotation
									JOINT RightHandIndex1
									{
										OFFSET -0.71819 -0.00000 -0.00000
										CHANNELS 3 Zrotation Yrotation Xrotation
										End Site
										{
											OFFSET -0.57902 -0.00000 -0.00000
										}
									}
								}
								JOINT RThumb
								{
									OFFSET 0 0 0
									CHANNELS 3 Zrotation Yrotation Xrotation
									End Site
									{
										OFFSET -0.58786 -0.00000 0.58786
									}
								}
							}
						}
					}
				}
			}
		}
	}
}
MOTION
Frames: 10
Frame Time: .0083333
-24.4953 15.2911 0.1625 0 0 0 0 0 0 -21 0 0 0 0 0 0 0 0 0 0 0 0 0 0 21 0 0 0 0 0 0 0 0 0 0 0 0 0 0 0 0 0 0 0 0 0 0 -16 0 0 21 0 0 11 0 0 0 -8 0 0 0 0 0 0 0 0 0 0 0 0 0 0 0 0 0 0 0 0 8 0 0 0 0 0 0 0 0 0 0 0 0 0 0 0 0 0
-24.4953 15.2911 0.1625 -12.7116 86.1571 -14.7018 0.0000 0.0000 0.0000 -23.4545 -17.7226 2.5919 1.4252 7.5493 21.3532 0.6772 14.5470 -26.7694 0.0857 -1.8882 -5.1967 0.0000 0.0000 0.0000 27.2018 15.9952 3.9668 -1.1068 -6.6842 18.7831 -0.3259 -23.0013 -34.3750 -1.0457 6.5031 -18.2513 -0.4919 1.9785 3.0539 -0.7517 2.7036 3.4894 -0.5307 1.3782 1.8837 5.8817 2.7249 -11.4284 -1.4420 3.4354 24.6135 -1.0611 2.1635 9.8112 0.0000 -0.0000 0.0000 -87.8360 -2.7685 30.7159 14.2278 -23.0595 -2.9168 -0.0000 -0.0000 5.9097 17.1489 9.7772 2.9996 -7.1250 0.0000 -0.0000 -8.6223 40.0570 1.0597 0.0000 -0.0000 0.0000 88.4511 -4.6772 34.5563 -18.9500 29.3566 -5.0063 0.0000 -0.0000 -19.9868 -17.0819 1.2007 -0.3689 7.1250 -0.0000 -0.0000 7.3727 -28.6918 2.9501
-24.4962 15.2900 0.1640 -12.9543 86.1675 -14.9500 0.0000 0.0000 0.0000 -23.4294 -17.7291 2.5914 1.4258 7.5506 21.3570 0.6913 14.4812 -26.8079 0.0775 -1.7954 -4.9407 0.0000 0.0000 0.0000 27.2302 16.0090 3.9804 -1.1075 -6.6864 18.7897 -0.3363 -23.0041 -34.4391 -1.0263 6.4443 -18.0790 -0.4061 2.0520 3.0905 -0.8718 2.8053 3.4898 -0.7041 1.4331 1.8746 6.0555 2.6577 -11.5857 -1.3527 3.2641 24.6006 -1.0779 2.1075 9.8327 0.0000 -0.0000 0.0000 -87.5389 -2.7655 31.1822 14.2593 -23.1042 -2.9291 -0.0000 -0.0000 5.7518 16.9751 9.8560 2.9911 -7.1250 0.0000 -0.0000 -8.7868 40.1237 1.0657 0.0000 -0.0000 0.0000 88.7238 -4.6958 34.2623 -18.9600 29.3689 -5.0112 0.0000 -0.0000 -19.9253 -17.1497 1.2081 -0.3728 7.1250 -0.0000 -0.0000 7.3196 -28.6842 2.9299
-24.4948 15.2895 0.1640 -12.9608 86.2201 -14.9486 0.0000 0.0000 0.0000 -23.4493 -17.7700 2.5955 1.4287 7.5580 21.3793 0.7044 14.4182 -26.8419 0.0690 -1.6952 -4.6641 0.0000 0.0000 0.0000 27.2006 15.9440 3.9865 -1.1025 -6.6716 18.7460 -0.3513 -22.9868 -34.5039 -1.0151 6.4101 -17.9790 -0.4099 2.0627 3.0680 -0.9221 2.8214 3.5054 -0.7525 1.4421 1.9058 6.2068 2.6295 -11.6961 -1.4188 3.1895 24.5021 -1.1346 2.0744 9.8199 -0.0000 0.0000 0.0000 -87.3762 -2.7696 31.5419 14.2884 -23.1454 -2.9405 -0.0000 -0.0000 5.5871 16.8725 9.6948 2.9239 -7.1250 0.0000 -0.0000 -8.8464 39.9494 1.1114 -0.0000 0.0000 0.0000 88.7947 -4.7280 34.2053 -18.9880 29.4038 -5.0250 0.0000 -0.0000 -19.9374 -17.2659 1.1286 -0.3507 7.1250 -0.0000 -0.0000 7.2351 -28.7668 2.8813
-24.4931 15.2903 0.1622 -13.2880 86.2561 -15.2505 0.0000 0.0000 0.0000 -23.4503 -17.8220 2.5852 1.4332 7.5695 21.4139 0.7148 14.3830 -26.8845 0.0622 -1.6091 -4.4265 0.0000 0.0000 0.0000 27.1860 15.8958 3.9663 -1.0968 -6.6551 18.6974 -0.3394 -23.0194 -34.4763 -1.0238 6.4367 -18.0569 -0.4353 2.0308 3.0517 -0.9047 2.7787 3.5168 -0.7190 1.4199 1.9241 6.1680 2.6347 -11.7899 -1.4127 3.1859 24.3880 -1.1260 2.0642 9.7960 -0.0000 -0.0000 0.0000 -87.3636 -2.7816 31.7051 14.3011 -23.1636 -2.9455 -0.0000 -0.0000 5.5427 16.8787 9.4653 2.8565 -7.1250 0.0000 -0.0000 -8.8003 39.7139 1.1569 -0.0000 -0.0000 0.0000 88.7237 -4.7031 34.3134 -18.9722 29.3841 -5.0172 0.0000 -0.0000 -20.0067 -17.3457 1.0662 -0.3330 7.1250 -0.0000 -0.0000 7.1774 -28.8317 2.8468
-24.4932 15.2911 0.1611 -14.3823 86.2027 -16.3412 0.0000 0.0000 0.0000 -23.3689 -17.8028 2.5632 1.4380 7.5815 21.4500 0.7043 14.4529 -26.8775 0.0739 -1.7539 -4.8260 0.0000 0.0000 0.0000 27.2656 15.8823 3.9812 -1.0911 -6.6382 18.6480 -0.3207 -23.0289 -34.3802 -1.0327 6.4639 -18.1364 -0.3595 2.0375 3.1000 -0.8948 2.7886 3.5254 -0.7530 1.4266 1.9092 6.1061 2.6634 -11.8649 -1.3316 3.2029 24.2477 -1.0851 2.0694 9.7587 0.0000 -0.0000 0.0000 -87.3044 -2.8407 31.9030 14.2788 -23.1318 -2.9367 -0.0000 -0.0000 5.5103 16.9861 9.3317 2.8356 -7.1250 0.0000 -0.0000 -8.6844 39.5850 1.1692 0.0000 -0.0000 0.0000 88.7226 -4.6473 34.3070 -18.9292 29.3306 -4.9961 0.0000 -0.0000 -20.0189 -17.2861 1.1127 -0.3463 7.1250 -0.0000 -0.0000 7.2205 -28.7833 2.8725
-24.4940 15.2916 0.1619 -15.2292 86.1273 -17.1965 0.0000 0.0000 0.0000 -23.2864 -17.7817 2.5412 1.4441 7.5970 21.4965 0.7005 14.4945 -26.8925 0.0835 -1.8638 -5.1294 0.0000 0.0000 0.0000 27.3426 15.8463 4.0084 -1.0850 -6.6203 18.5953 -0.3170 -22.9758 -34.2914 -1.0315 6.4602 -18.1256 -0.3136 2.0486 3.1585 -0.8905 2.8037 3.5234 -0.7768 1.4352 1.8766 6.0638 2.7021 -11.9718 -1.2421 3.2318 24.2225 -1.0420 2.0862 9.7694 0.0000 -0.0000 0.0000 -87.2291 -2.8516 32.0505 14.2745 -23.1257 -2.9350 -0.0000 -0.0000 5.4206 17.1398 9.2768 2.8461 -7.1250 0.0000 -0.0000 -8.5427 39.5405 1.1592 0.0000 -0.0000 0.0000 88.7250 -4.6683 34.3200 -18.9364 29.3396 -4.9997 0.0000 -0.0000 -20.0084 -17.1926 1.2080 -0.3737 7.1250 -0.0000 -0.0000 7.2864 -28.6843 2.9164
-24.4940 15.2907 0.1634 -15.3464 86.0890 -17.3236 0.0000 0.0000 0.0000 -23.2583 -17.7906 2.5117 1.4542 7.6223 21.5727 0.7203 14.4285 -26.9740 0.0754 -1.7719 -4.8757 0.0000 0.0000 0.0000 27.3801 15.8657 4.0767 -1.0762 -6.5943 18.5187 -0.3162 -22.9774 -34.2887 -1.0296 6.4542 -18.1081 -0.3565 2.0397 3.1838 -0.8864 2.7910 3.5262 -0.7495 1.4280 1.8629 6.0901 2.7265 -12.0392 -1.2764 3.2602 24.2003 -1.0543 2.0957 9.7767 -0.0000 -0.0000 0.0000 -87.2185 -2.8374 32.0382 14.2859 -23.1419 -2.9395 -0.0000 -0.0000 5.4020 17.4220 9.4469 2.9485 -7.1250 0.0000 -0.0000 -8.3288 39.7387 1.0888 -0.0000 -0.0000 0.0000 88.7036 -4.7261 34.3783 -18.9817 29.3959 -5.0218 0.0000 -0.0000 -20.0126 -17.1460 1.2413 -0.3829 7.1250 -0.0000 -0.0000 7.3203 -28.6497 2.9362
-24.4949 15.2900 0.1645 -15.3745 86.0260 -17.3583 0.0000 0.0000 0.0000 -23.2269 -17.7636 2.4620 1.4660 7.6518 21.6614 0.7397 14.3678 -27.0580 0.0702 -1.7098 -4.7043 0.0000 0.0000 0.0000 27.4231 15.9324 4.1531 -1.0660 -6.5640 18.4301 -0.2925 -23.0647 -34.2617 -1.0613 6.5498 -18.3882 -0.3971 2.0313 3.1972 -0.8755 2.7794 3.5426 -0.7157 1.4214 1.8696 6.1624 2.7620 -12.0218 -1.4218 3.3228 24.0618 -1.1105 2.1105 9.7303 -0.0000 0.0000 0.0000 -87.2711 -2.8534 31.8679 14.2849 -23.1406 -2.9392 -0.0000 -0.0000 5.5500 17.9316 9.6856 3.1163 -7.1250 0.0000 -0.0000 -7.9290 40.0273 0.9790 -0.0000 0.0000 0.0000 88.6698 -4.7344 34.4712 -19.0139 29.4359 -5.0377 0.0000 -0.0000 -20.0442 -17.1193 1.1976 -0.3689 7.1250 -0.0000 -0.0000 7.3440 -28.6951 2.9379
-24.4956 15.2908 0.1644 -17.4670 85.9087 -19.4446 0.0000 0.0000 0.0000 -23.0271 -17.7056 2.3951 1.4772 7.6797 21.7454 0.7371 14.3936 -27.0647 0.0784 -1.8061 -4.9702 0.0000 0.0000 0.0000 27.6084 15.9264 4.1819 -1.0565 -6.5354 18.3461 -0.2560 -23.1274 -34.1291 -1.0945 6.6483 -18.6775 -0.2448 2.0242 3.2061 -0.8281 2.7718 3.5535 -0.7521 1.4203 1.8806 6.1638 2.7806 -12.0560 -1.5063 3.3641 24.0357 -1.1349 2.1187 9.7305 0.0000 -0.0000 0.0000 -87.3278 -2.8473 31.6650 14.2968 -23.1574 -2.9438 -0.0000 -0.0000 5.7272 18.5375 9.7799 3.2600 -7.1250 0.0000 -0.0000 -7.4194 40.1757 0.8880 0.0000 -0.0000 0.0000 88.6477 -4.7100 34.5384 -18.9986 29.4169 -5.0302 0.0000 -0.0000 -20.0278 -17.0578 1.2332 -0.3784 7.1250 -0.0000 -0.0000 7.3891 -28.6581 2.9627
